<?xml version="1.0" encoding="UTF-8"?>
<svg id="_Слой_2" data-name="Слой 2" xmlns="http://www.w3.org/2000/svg" viewBox="0 0 291.26 75.43">
  <defs>
    <style>
      .cls-1 {
        fill: #1fcecb;
      }
    </style>
  </defs>
  <g id="Elements">
    <path class="cls-1" d="m290.64,20.55c-1.23-.06-2.62-1.33-3.72-1.33-.07-.25,2.35-.74,1.18-1.59-1.16-.84-5.35-.32-6.83-.58-.84-.15-7-.9-6.93-1.55.35-3.4,13.44.37,14.7-1.32-1.5-1.61-4.32-1.05-6.47-1.05,0-1.67-1.18-.27-2.16-1.1.31-.14.45-.35.42-.64-8.61,0-16.92-.74-25.26-1.74-3.86-.46-5.51-3.93-9.87-4.82-9.01-1.82-17.9-3.48-26.18-4.01-4.55-.29-9.44-1.04-13.61-.75-5.34.37-11.77.78-17.73.43-3.98-.23-8.63.45-13.06.52-3.93.06-9.23.06-13.45,1.18-1.91-1.91-4.65-.22-6.26-.18-2.97.08-4.76-.23-7.67.18-3.97.57-9.13-.45-13.05.02-8.3,1-16.68-.67-25.69.13-2.8.25-6.64.88-10.62,1.18-2.82.22-4.5.59-6.82.89-2.64.34-5.42.58-8.05,1.07-18.49,3.44-37.55.17-56.25,1.54-4.18.31-8.28.38-12.33.85-2.65.31-7.1.34-9.53,1.53-4.89,2.41,0,5.14,1.89,7.84-.29.27-1.26.77-1.31,1.13-.37,2.41,1.01.52-.72,2.14-2.37,2.22-3.76.44-2.33,4.63.17.49,1.81,3.17,1.65,3.77-.15.57-1.47,1.36-1.42,1.18-.09.34-1.01.44-1.11.64-.65,1.37,1.06,1.69,1.29,2.66.47,1.99.42,1.98.88,3.46.08.27,1.52,3.79,1.37,3.52.36.63,2.14,2.52,2.13,3.03-.06,1.94.24.29-1.58.6-1.67.28-4.34-2.08-5.76-.25-1.21,1.55.73,2.29,1.23,3.31.72,1.47,2.08,3.08,2.18,4.75.02.38-1.48,2.33-1.3,3.11.33,1.4,1.9,1.76,2.79,2.55,3.69,3.29,6.62,4.69,11.46,5.28,2.87.35,5.91.65,8.67,1.36.98.25.22,1.48,1.22,1.69.54.12,5.37.04,5.7,0,2.83-.36,4.88-.32,8.79,0,2.1.17,5.14,1.16,7.35,1.31,3.11.22,8.13-.21,11.95,0,.63.03,2.65-.16,3.17,0-.13-.04,2.23,1.02,1.63,1.1-.68.09,3.63.09,1.73-.63,1.29.48.19-.55,1.94,1.73.78-.27,1.15-.71,1.12-1.32.65-.05,1.92,1.79,2.96,1.74,1.93-.08,3.4-4.76,6.22-1.93-1.05.92-2.43,1.33-1.32,2.8.34.45,4.15-.51,4.77-.43,3.6.44,4.62,3.83,5-.29.06-.63-2.86-.18-.79-1.53,1.53-1,1.15-.54,2.33.84,1.66,1.96.34,2.16,2.47,2.63.19.04,2.76-.49,3.63-.36-.01,0,.76,1.69,1.2,1.74.55.07,1.83-.89,2.28-1.31.83-.77-.14-3.08,1.31-1.96.28.22-.14,1.95-.36,1.67.23.29.16,1.88.36,2.03h2.81c.68-1.21,1.33-1.13,1.97.23,1.18.08,1.61.85,3.06-.42-.43-.8-2.49-2.85.43-2.85.4,1.59-1.07,1.47.99,3.05,1.14.88,2.59,1.85,3.99.5,1.45,1.06.63,1,2.33.55.42-.11,2.19-1.61,2.71-1.48,0,3.1,6.33,1.54,7.4,1.52.73-.01,4.54.61,6.75.66,6.18.15,13.48-1.04,19.17-1.33,12.67-.65,25.17-3.07,37.01-6.09,6.48-1.66,12.99-2.23,19.67-3.54,2.84-.56,6.24-1.34,9.3-1.67,2.94-.32,6.38-.18,9.2-1.1,1.96-.64,2.93-1.68,4.74-1.95.99-.15.72-.02,1.63-.44.95-.43.42,1.38,2.07.43.63-.37-.23-1.54.54-1.79,3.23-1.08,6.61-1.93,9.69-2.55,5.51-1.11,9.8-1.21,14.19-2.98,1.49-.6,3.34.05,5.49-.51.23-.06,2.27-1.33,2.31-1.38.69-.72-.95-1.08-.55-1.55.94-1.1,2.4-1.28,3.38.09-.43.25-.57.62-.43,1.1,5.25,0,1.02-.44,1.38-1.16,1.16-2.29,4.38,1.68,2.68-2.32-.23-.53-2.39.25-2.32-.88.07-1.19,2.53-1.18,2.55-1.15,0,0-1.1-.65-1.24-.59-.11.04,1.75-.65,2.18-.87-.09.04,1.57.44,1.48.44,1.55-.87-1.1-.87-1.05-.87,0-3.8.18-.1,1.29-1.97-3.11-3.43,7.97-1.02,7.42-2.82.11-.56-4.26-.84-4.59-.88-1.35-.17-3.76.06-4.99-.42-.96-.38-.49-1.65-1.26-2.18-.49-.33-2.22-.43-2.66-.43-.14-.48,9.49-2.73,10.89-4.79,1.54-2.27-.47-1.23-.28-2.18.39-1.99,1.11-.58,2.86-2.36-.57-.6-2.14.26-2.14-1.12,2.03,0,1.7-1.93,2.98-2.44,1.01-.4,5.61.74,6.15.02-.2-.2-.41-.41-.61-.61-.14,0,.2.2,0,0Z"/>
  </g>
</svg>