<svg width="512" height="512" viewBox="0 0 512 512" fill="none" xmlns="http://www.w3.org/2000/svg">
<rect width="512" height="512" rx="184" fill="#FF004D"/>
<path d="M278.814 35.137C274.944 64.509 281.024 98.054 302.377 126.414C327.077 159.221 372.454 185.92 448.867 190.881C438.003 137.575 416.924 106.494 387.997 83.466C364.927 65.099 336.213 51.732 303.977 37.506C333.815 74.291 364.607 110.898 409.359 130.2L402.229 146.727C346.516 122.697 311.937 76.029 278.813 35.137H278.814ZM259.2 46.79C216.587 135.582 170.273 222.5 111.225 303.87C109.258 302.26 107.455 300.645 105.771 299.145C100.791 294.709 96.661 291.155 90.351 288.738C88.013 287.842 85.676 287.408 83.331 287.412C76.296 287.422 69.181 291.36 61.681 298.522C51.681 308.075 42.735 322.934 37.788 336.142C23.47 374.369 42.743 416.716 80.974 431.032C119.204 445.352 161.556 426.08 175.874 387.854C180.814 374.667 183.898 357.434 182.674 343.611C182.064 336.701 180.391 330.714 177.888 326.403C175.385 322.093 172.356 319.37 167.678 317.776C163.212 316.256 157.161 316.069 149.913 315.926C143.083 315.793 135.171 315.629 126.943 312.862C180.285 239.095 223.179 161.167 262.173 81.872C255.033 138.465 247.993 196.415 232.263 252.162C225.233 251.332 219.416 248.967 214.376 247.018C208.154 244.611 203.039 242.733 196.282 242.682C186.269 242.605 178.882 249.448 172.867 261.898C167.807 272.378 164.773 286.108 163.937 298.606C167.047 298.994 170.237 299.633 173.481 300.738C182.353 303.761 189.161 309.972 193.454 317.365C197.747 324.759 199.828 333.245 200.604 342.027C201.379 350.777 200.871 359.889 199.448 368.754C210.528 375.4 223.51 379.224 237.415 379.224C278.24 379.224 311.14 346.326 311.14 305.506C311.14 291.426 307.984 274.206 301.99 261.689C298.993 255.432 295.327 250.413 291.47 247.254C287.614 244.094 283.822 242.606 278.88 242.754C274.167 242.896 268.435 244.844 261.598 247.252C258.456 248.359 255.058 249.538 251.41 250.502C263.25 206.732 270.01 162.255 275.686 118.699C263.302 95.443 258.402 70.4 259.2 46.79ZM305.932 157.395C307.569 162.916 309.217 168.434 310.877 173.949C331.317 241.794 356.201 318.262 379.084 369.204C374.547 369.384 370.369 369 366.624 368.684C359.974 368.12 354.541 367.754 348.041 369.601C338.411 372.339 333.241 380.981 330.966 394.618C328.691 408.256 330.442 425.512 334.403 439.048C345.867 478.226 386.683 500.563 425.866 489.1C465.048 477.636 487.386 436.824 475.923 397.646C471.968 384.132 464.103 368.491 454.837 358.162C450.203 352.998 445.273 349.209 440.685 347.26C438.39 346.285 436.229 345.706 434.055 345.562C431.878 345.419 429.687 345.712 427.337 346.477C422.852 347.935 417.897 351.414 412.013 355.645C407.676 358.763 402.795 362.255 396.937 364.935C375.427 317.703 350.579 242.812 330.175 175.56C321.168 170.004 313.1 163.914 305.933 157.392L305.932 157.395Z" fill="#F8F8F8"/>
</svg>
