<?xml version="1.0" encoding="UTF-8"?>
<svg id="_Слой_2" data-name="Слой 2" xmlns="http://www.w3.org/2000/svg" viewBox="0 0 334.07 63.25">
  <defs>
    <style>
      .cls-1 {
        fill: #5c2849;
      }
    </style>
  </defs>
  <g id="Elements">
    <path class="cls-1" d="m334.07,4.7c-2.17-3.56-6.94-3.28-10.81-3.73-6.91-.79-15.32-1.11-21.9-.64-7.35.52-17.51.87-24.77.63-12.33-.4-23.5.84-36.47.87-10.84.03-20.23-.68-32.62-1.36-27.04-1.48-54.65.78-82.16,2.23-32.59,1.72-65.77,4.83-98.85,6.1-4.12.16-16.88-1.67-17.77,3.68-.61,3.72,1.88.33,3.87,2.85,2.21,2.8-1.73,2.87-3.21,3.5-5.87,2.47.45,7.24-4.74,9.35C2.59,29.03-.11,28.55,0,31.79c.07,2.07,2.61,1.88,2.61,3.59-.97-.48-1.68-.39-2.12.25.84.86,1.71.84,2.63,1.23.81.35,2.19.31,2.98.69,1.25.6,1.56,1.59,2.82,2.15,3.58,1.61,7.42,1.01,10.67,3.07.52.33,1.34.28,1.77.66.99.89.65,1.97,2.01,2.8,2.07,1.26,5.61-.27,7.56.9,1.05.64,1.11,2.42,1.76,3.32.87,1.2,2.1,2.3,3.4,3.22,4.71,3.32,11.02,4.86,16.82,4.8,2.52-.03,6.35-.09,8.94.86,1.28.47,2.65,1.26,4.11,1.73,6.19,2,12.93,2.19,20.08,2.19,6.5,0,12.83-.37,18.76-2.01,3.92-1.08,8.33-2.48,12.69-2.78,12.81-.88,26.21-1.27,39.01-.44,4.1.27,8.37-.29,12.25.43,2.14.4,3.94,1.09,6.17,1.36,6.15.74,11.99.17,17.59-.92,9.58-1.86,20.68-2.4,30.25-3.46,5.04-.56,10.93,1.18,16.57.8,5.41-.36,12.06-1,17.82-1.7,4.64-.56,8.84-1.77,13.33-2.61,2.63-.5,9.64-1.42,10.82-4.07-.08.18-2.04-.59-2.07-1.47-.15.06,2.83-1,2.82-1,2.97-.46,4.28-.4,6.14-1.73,2.1-1.5,1.62-1.99,4.52-2.61.96-.21,7.44-.62,7.77-1.17,1.01-1.71-3.44-1.67-3.86-2.08.86-1.33,8.3-1.08,3.04-2.41-1.3-.33-3.44-.41-5-.43-.43,0-3.9.87-4.36.42-2.1-2.04,2.22-1.94,2.59-2.61,1.08-1.99-.98-2.85-.2-3.92.64-.89,4.63-.32,5.83-.44,2.41-.24,12.49.68,14.13-1.89.26-.41-8.28-1.1-9.28-1.16-4.4-.28-9.45-.6-13.73-1.31.19-.48,1.59-1.49,1.95-1.75,3.08-2.2.99-.02,3.87-.45.73-.11,2.16-.8,2.89-.93.25-.04,2.13,0,1.94.03,2.22-.3,4.18-.43,4.84-2.11.64-1.62-1.29-2.98,1.06-4.38.66-.39,2.66-.26,2.92-.43.76-.49,1.04-1.69,1.49-2.01,1.45-1.06,3.17-3.08,5.36-3.64,3.53-.9,18.09.68,18.09-3.67-.16-.26,0,.1,0,0Z"/>
  </g>
</svg>