<?xml version="1.0" encoding="UTF-8"?>
<svg id="_Слой_2" data-name="Слой 2" xmlns="http://www.w3.org/2000/svg" viewBox="0 0 348.97 74.5">
  <defs>
    <style>
      .cls-1 {
        fill: #a73e5c;
      }
    </style>
  </defs>
  <g id="Elements">
    <g>
      <path class="cls-1" d="m0,56.36c2.77.04,6.81-.64,9.3.11,2.15.65,1.48,1.21,3.92,1.21.63,3.14,9.11-1.19,10.4,1.47.1.21-3.48,1.55-3.73,1.67.83-.39,5.93-.09,7.07-.1,2.43-.01,4.42.7,5.08,1.6.04.05,2.54.68,2.97.84,1.94.71-1.52.68,3.19,1.04.86,0,1.71,0,2.57,0,.22-.03.34-.17.34-.43,6.49-.34,12.8-.29,18.85.43,8.75,1.05,16.97,1.83,25.57,3.05,21.19,3.01,42.73,3.23,65.33,4.36,12.45.62,28.52-.3,41.99-.83,14.41-.57,29.11-2.89,43.71-1.68,10.76.89,21.74,2.73,33.02,3.4,10.58.63,20.96,3.21,31.77,1.27,2.49-.45,5.41-1.36,7.83-1.71,1.57-.23,3.94.15,5.46-.45,1.59-.64,2.28-1.71,3.72-2.63,1.19-.76,3.98-.59,4.75-1.3,1.3-1.2.3-2.58.68-3.72-.12.37.77-2.44.67-2,.21-.9,1.68-1.36,1.44-2.39-.39-1.69-7.06-2.94-6.46-4.95-.77,0,2.62.18,2.1-.73-.84-1.46-5.7-2.05-7.33-2.32.31-1.55,1.37-.45,2.64-1.04-2.73-2.92,9-2.08,10.17-2.01.58.04,9.18-.06,8.91-.71-.23-.54-2.43-.38-2.11-1.46,1.75,0,7.99.5,9.13-.64-.55-.97-6.4-1.26-5.52-2.53,1.41-2.05,9.07,1.25,10.6-1.19.91-1.46-1.18-2.69-2.42-3.72-.51-.43-1.44-1.06-1.98-1.51-.66-.53-2.4-.38-2.8-1.05,1.15-2.41,7.27.57,8.16-1.81-.77-.86-6.24-.79-7.66-1.06-2.9-.56-4.66-1.13-7.37-1.81-2.98-.75-5.97-2.04-9.11-2.98-10.26-3.09-20.33-4.87-31.3-6.09-4.16-.46-11.47-.04-14.85-3.05-1.82-1.61-2.1-4.13-4.28-5.6-1.94-1.31-4.14-1.71-6.2-2.28-7.18-1.98-14.92-2.17-22.55-2.51-7.86-.35-15.21-1.38-22.52-1.78-19.67-1.06-37.06-3.09-57.03-3.09,0-2.18,1.46-1.85-1.1-3.05-1.2-.56-2.61-.33-4.13-.44-1.62-.11-2.18-.35-3.92,0-1.16.23-2.13.35-3.32.44-1.53.11-2.94.57-5.1.44-2.41-.15-3.97-.04-7.09,0-7.16.08-13.76-.52-21.54-.44-4.76.05-9.02,1.3-13.5,2.42-1.87.47-3.37,1.15-5.28,1.5-2.29.43-3.52.95-5.26,1.63-7.54,2.92-18.32.11-26.68.11-7.43,0-14.48.05-21.54.87-5.01.58-9.59,1.44-14.41,2.39-1.78.35-3.88.73-5.52,1.53-.42.2-1.75.1-2.06.66-1.13,2.04.89,1.47,1.96,2.18,0,1.18-6.97,3.37-7.62,3.69-1.55.79-4.61,2.64-6.33,4.08.15,1.36,3.7.11,4.79.57,2.14.9-.69,1.58-.4,2.09.39.69,1.55-.1,2.12.49-1.52,1.52-5.2.96-5.99,2.51-.14.27,3.34.71,3.35.72,1.6,1.79-.91,1.5-.93,2.18-.05,1.86-1.04.88,1.41.87,1.23,0,12.21-1.23,12.86-.04,1.32,2.41-3.69,3.01-5.29,3.31-2.88.55-4.42.75-6.86,1.47-1.89.55-2.41,1.21-3.75,2.08-1.39.9-4.54,1.37-5.57,2.45-.67.7,4.29-.12,4.7-.12,0,2.01-5.62,2.85-5.58,2.9.53.86.63,2.06-.08,3.43-1.34,2.59-2.74,1.36-5.13,2.82-3.19,1.94.08,2.12-.1,4.07-.07.75-2.84,2.9-3.19,2.89,1.15.02-.08,0,0,0Z"/>
      <path class="cls-1" d="m11.73,22.8c.68-.68.73-.84-.25-.84-.14.38-.05.66.25.84.2-.2-.08-.08,0,0Z"/>
      <path class="cls-1" d="m221.05,60.75c.05.01.04,0,0,0h0Z"/>
      <path class="cls-1" d="m209.29,38.54c.05.01.04,0,0,0h0Z"/>
    </g>
  </g>
</svg>