<?xml version="1.0" encoding="UTF-8"?>
<svg id="_Слой_2" data-name="Слой 2" xmlns="http://www.w3.org/2000/svg" viewBox="0 0 316.68 74.64">
  <defs>
    <style>
      .cls-1 {
        fill: #ec4863;
      }
    </style>
  </defs>
  <g id="Elements">
    <g>
      <path class="cls-1" d="m316.57,52.77c-6.48,0-14.15.44-21.34.44,0-.79,1.6-1.84,2.19-2.27.88-.65,2.38-.48,3.47-2.41.34-.59-.94-1.4,0-2.46.56-.63,1.51-.76,1.95-1.12.56-.46,5.96-3.48,1.53-3.48.3-1.64,5.86-.75,5.66-2.28-.06-.5-14.65-.77-16.12-.77,0-1.79,3.88,0,4.36-.87.63-1.16-5.83-.85-6.52-1.46.62-1.85.67.19-.47-1.87,3.86-3.64,9.02-1.67,13.5-4.27-1.39-1.22-6.21.52-7.99.63-3.21.2-10.29,1.08-12.45-1.08,1.08-1.13,7.52-.62,7.76-1.25.55-1.45-7.89.33-8.2-1.59.68.21,1.1-1.33.62-1.74.59.5-3.5.03-3.23-.87.7.31,1.14.17,1.32-.43,0-.91-4.72-1.31-5.24-1.31,0-2.25,9.82-3.52,11.28-3.7,2.68-.34,6.21-.92,8.75-1.09,1.22-.08,3.04-.38,3.92-.44,1.61-.1,3.04.15,4.41-.34.75-.27-.15-.96-.49-.96,0-.52,3.76-2.44,4.36-2.61,1.85-.54,5.1.4,6.48-1.06-.73-.84-8.24-.63-9.42-.68-3.28-.15-6.2-.06-9.2-.44-5.64-.72-11-.88-16.6-1.74-9.29-1.43-18.76-3.41-28.53-4.36-11.07-1.07-22.47-1.87-33.64-2.51-12.45-.71-25.74-2.11-38.54-2.28-18.01-.24-35.19.23-52.6.43-11.2.13-24.15-.14-35.28,1.31-21.33,2.78-43.75,2.26-65.12,6.09-3.28.59-20.73,4.74-13.96,9.15,1.02.67,3.03.5,3.73,1.09.52.44,2.07,3.28,1.97,4.14-.16,1.4.75.68-.51,2.18-.33.39-2.91-.45-3.2,0-1.12,1.74,3.44.87,4.36.87,0,2.05-4.48.45-5.16,1.9-.09.19,9.85-.88,8.91,1.85-.55,1.6-4.55-.96-5.42.75-.13.26,4.34.84,4.72.73-.05.32-8.22.87-9.15.87-.19.63,1.35,1.12,1.75,1.45-.23,2.43-6.25-.84-4.27,2.9,1.36,2.57,4.57,1.15,6.44,2.4-1.48,2.03-1.42.57-1.13,3.26.13,1.25,2.62.28.41,2.18-1.05.9-5.67.9-7.34.87-2.65-.06-5.5-.76-7.63.64-.31.2-1.39,1.29-1.51,1.54-.26.51-.17,3.01.43,3.48.84.65,2.57-.14,3.27.44,1.71,1.4-.12,2.62.67,3.92.42.68,2.73,2.84,3.25,3.48.39.49,1.43,1.42,1.98,2.21.75,1.09.47,1.86,1.43,2.72,1.7,1.51,4.31,1.69,6.19,3.15,1.41,1.1,1.74,1.83,3.42,3.03,2.1,1.49-.62,1.51,3.37,1.89-.02,0,.62-.8.73-.79,1.77.16,10.51,1.75,10.33,1.95.49.67,1.73.05,1.73-.65,2.14,0,4.08,1.06,6.31,1.31.97.11,1.73-.27,3.08.44.62-.7,4.33.41,5.41.43,2.11.03,8.11,1.13,9.74-.36-2.4,2.2,5.9.98,5.53,1.01,1.74-.12,8.02-.75,8.46.23,1.16-1.1,8.65-1.09,10.49-1.31,2.82-.34,5.69-.1,7.84-.44,3.78-.59,7.29.02,10.44.44,1.98.26,6.89.27,8.34-.51,2.05-1.1.09-.18,2.33.07,2.18.25,3.09.01,4.92-.08,5.96-.3,13.01-.31,18.39-.36,6.75-.05,14.91.48,21.78.44,3.4-.02,5.8-.31,8.91,0,3.29.32,6.78-.48,9.9-.44,17.08.25,34.58.28,53.36-.44,8.28-.32,19.65,0,27.62,0,2.69,0,25.86.81,25.86.01,0-.36-5.83-.89-6.18-.87-1.03.06-2.47.33-4.45.06-1.75-.23-3.77-.31-5.5-.28-.83.01-2.58.37-3.67.22-.74-.1-1.61-.69-2.13-.8-.77-.17-.88,1.01-1.6.8.1-.39-.04-.68-.44-.87.33-1.65,18.79-.46,20.04-.44.98.02,2.02-.38,3.21-.38,2.06,0,2.85,0,5.08.16,4.33.31,9.04.02,14.12-.21.75-.03,14.85-3.61,12.21-5.66h-3.26c0-1.21,3.8-10.89,3.48-10.89Z"/>
      <path class="cls-1" d="m288.26,71.93c-1.77,0-2.04.87.44.87.15-.45,0-.74-.44-.87-.15,0,.24-.05,0,0Z"/>
      <path class="cls-1" d="m292.4,72.36c-.37-.3-2.53-.97-2.77-.27-.48,1.35,4.12,1.37,2.77.27Z"/>
      <path class="cls-1" d="m293.7,71.5c-.95,0-1.09-.05-1.09.87.3,0,1.64-.32,1.09-.87-.25,0,.07.07,0,0Z"/>
      <path class="cls-1" d="m298.94,71.93c-.73-.69-3.28-1-3.28.44-.01,0,5.87,1.05,5.15-.29-.58-.29-1.2-.34-1.87-.15-.15-.14.5,0,0,0Z"/>
      <path class="cls-1" d="m11.6,32.15c.34-.54-.36.58,0,0,.06-.09-.04.06,0,0Z"/>
      <path class="cls-1" d="m184.09,2.65c-.05-.01-.04,0,0,0h0Z"/>
      <path class="cls-1" d="m295.15,66.68c-.05-.01-.04,0,0,0h0Z"/>
      <path class="cls-1" d="m114.83,70.59s-.03,0,0,0h0Z"/>
      <path class="cls-1" d="m247.24,67.98s-.04,0,0,0h0Z"/>
    </g>
  </g>
</svg>