<svg width="553" height="206" viewBox="0 0 553 206" fill="none" xmlns="http://www.w3.org/2000/svg">
<g clip-path="url(#clip0_222_1050)">
<path d="M314.412 76.7165L314.421 76.7274C317.536 80.5945 321.84 82.5001 327.4 82.5001C331.414 82.5001 334.784 81.5804 337.137 79.4724C339.366 77.7819 340.7 75.0996 340.7 72.3001C340.7 69.6073 339.472 67.0267 337.345 65.335C336.203 64.3168 334.396 63.3711 332.024 62.488C329.615 61.5911 326.542 60.7294 322.815 59.9234C310.761 57.2334 302.272 53.6792 297.37 49.2575L297.357 49.2463L297.345 49.2356C292.472 45.1271 289.709 39.1168 289.9 32.7299L289.9 32.715V32.7001C289.9 28.2997 291.24 23.8984 293.723 20.2681C296.62 16.1173 300.566 12.8533 305.262 11.0325L305.28 11.0253L305.298 11.0174C310.421 8.79421 317.667 7.6001 326.9 7.6001C338.202 7.6001 346.659 9.68634 352.417 13.813L352.427 13.8193C357.91 17.6579 361.354 23.8145 362.57 32.3636L338.517 33.7513C337.744 30.0458 336.303 27.1841 333.937 25.2291C331.406 23.1385 328.155 22.2001 324.1 22.2001C320.776 22.2001 318.118 22.9241 316.273 24.4211C314.579 25.7777 313.391 27.8574 313.5 30.2253C313.509 32.0564 314.473 33.7122 315.86 34.7699C316.663 35.4948 317.904 36.1134 319.466 36.6675C321.075 37.2385 323.122 37.7741 325.595 38.2788C337.68 40.8759 346.17 43.4542 351.346 46.0911C356.529 48.7314 360.161 51.9159 362.339 55.6081L362.343 55.6146C364.644 59.4497 365.796 63.8634 365.7 68.3788L365.7 68.3895V68.4001C365.7 73.8129 364.153 79.2141 361.073 83.7373L361.071 83.7415C357.878 88.4819 353.43 92.156 348.208 94.38L348.198 94.3843C342.661 96.8132 335.607 98.1001 327.1 98.1001C311.964 98.1001 301.814 95.1998 296.207 89.593C290.699 84.0851 287.345 77.2404 286.488 68.9318L310.848 67.3573C311.487 71.298 312.597 74.3962 314.412 76.7165ZM33 61.2001V96.5001H7.3V9.2001H52.4C60.8716 9.2001 67.3405 9.90102 71.6838 11.3488L71.6837 11.3489L71.6968 11.353C75.883 12.685 79.5954 15.446 82.0679 19.1548L82.0709 19.1592C84.8501 23.2801 86.1964 28.0762 86.1002 33.0809L86.0997 33.1075L86.1006 33.1342C86.3884 41.5762 82.0707 49.6217 74.7049 53.8312C71.8025 55.4757 68.6109 56.6357 65.3262 57.2153L65.2304 59.1631C67.5987 59.8262 69.9896 60.9668 72.1113 62.3108C73.7097 63.6354 75.0435 65.1571 76.3056 66.8075L76.327 66.8354L76.3502 66.8617C77.7931 68.497 79.0499 70.3313 80.1177 72.2709L92.7567 96.7001H63.5974L49.0806 69.7262L49.0789 69.723C47.1838 66.2321 45.4929 63.7415 43.7914 62.4937L43.7825 62.4872L43.7735 62.4809C41.5942 60.9554 38.9911 60.2001 36.4 60.2001H34H33V61.2001ZM33 44.4001V45.4001H34H45.7H45.7399L45.7797 45.3969C48.323 45.1935 50.7654 44.7874 53.2049 44.1796C55.2517 43.8276 57.0619 42.6862 58.3032 40.9958C61.3012 36.9941 60.8599 31.3237 57.1847 27.8713L57.163 27.8509L57.1402 27.8319C56.0722 26.9419 54.5773 26.3181 52.7692 25.9119C50.9508 25.5034 48.7479 25.3001 46.2 25.3001H34H33V26.3001V44.4001ZM11.8698 155.558L11.8574 155.546L11.8446 155.536C6.97175 151.427 4.2089 145.417 4.39955 139.03L4.4 139.015V139C4.4 134.6 5.73999 130.199 8.22268 126.569C11.1198 122.418 15.0653 119.153 19.7615 117.332L19.78 117.325L19.7981 117.317C24.9212 115.094 32.1671 113.9 41.4 113.9C52.702 113.9 61.1595 115.986 66.9175 120.113C72.4078 124.048 75.7614 130.12 76.9702 138.664L52.9172 140.051C52.145 136.35 50.7069 133.491 48.3454 131.536C45.9017 129.43 42.5356 128.498 38.4872 128.6C35.1863 128.602 32.5216 129.319 30.6699 130.923C28.845 132.306 27.7917 134.397 27.9001 136.725C27.9089 138.556 28.8733 140.212 30.2601 141.27C31.0631 141.995 32.3039 142.613 33.8656 143.168C35.4747 143.738 37.5225 144.274 39.995 144.779C52.0801 147.376 60.57 149.954 65.7461 152.591C70.9287 155.231 74.5612 158.416 76.7386 162.108L76.7425 162.115C79.0445 165.951 80.2 170.372 80.2 174.8C80.2 180.196 78.5619 185.505 75.5677 190.046C72.3754 194.784 67.9282 198.457 62.7081 200.68L62.6983 200.684C57.1606 203.113 50.1068 204.4 41.6 204.4C26.4671 204.4 16.3176 201.501 10.7101 195.896C5.21011 190.302 2.03103 183.455 1.09842 175.131L25.448 173.557C26.0865 177.497 27.1963 180.595 29.0116 182.915C32.0264 186.791 36.4358 188.8 42 188.8C46.0205 188.8 49.3952 187.877 51.7483 185.762C53.9478 183.992 55.3 181.423 55.3 178.6C55.3 175.907 54.0717 173.327 51.9448 171.635C50.8024 170.616 48.9949 169.671 46.6098 168.787C44.1884 167.891 41.0899 167.029 37.313 166.223C25.2601 163.533 16.7718 159.979 11.8698 155.558Z" fill="#5C2849" stroke="white" stroke-width="2"/>
<path d="M116.1 132.5C109.486 132.5 104.361 135.152 100.866 140.548C98.2017 144.497 96.9 150.638 96.9 158.7C96.9 168.624 98.3882 175.74 101.623 179.73C104.846 183.705 109.355 185.6 115.1 185.6C120.589 185.6 124.89 184.041 127.832 180.881L127.843 180.869L127.854 180.857C130.518 177.799 132.493 173.679 133.738 168.467L156.02 175.188C154.686 180.809 152.136 186.161 148.696 190.905C145.404 195.26 141.043 198.654 136.092 200.887C131.057 203.113 124.606 204.3 116.7 204.3C107.083 204.3 99.2404 202.91 93.3172 200.191L93.3116 200.189C87.3329 197.488 82.1689 192.645 77.7447 185.665C73.3755 178.771 71.2 169.874 71.2 158.9C71.2 144.272 75.0518 133.162 82.7071 125.507C90.3721 117.842 101.19 113.9 115.4 113.9C126.57 113.9 135.145 116.173 141.424 120.517C147.374 124.796 151.941 131.252 155.084 139.967L132.686 144.924C132.074 143.046 131.225 141.185 130.132 139.545L130.123 139.532L130.114 139.519C128.516 137.282 126.492 135.581 124.063 134.313C121.59 133.023 118.824 132.5 116.1 132.5ZM216.1 167.6V202.8H190.5V115.4H216.1V145.7V146.7H217.1H247.3H248.3V145.7V115.4H274.1V202.8H248.3V167.6V166.6H247.3H217.1H216.1V167.6Z" fill="#5C2849" stroke="white" stroke-width="2"/>
<path d="M357.814 183.637L357.811 183.642C354.504 190.062 349.346 195.319 343.016 198.825C336.498 202.424 328.375 204.3 318.6 204.3C308.601 204.3 300.464 202.715 294.042 199.603C287.419 196.29 281.969 191.13 278.369 184.805L278.369 184.805L278.363 184.795C274.373 177.983 272.3 169.468 272.3 159.1C272.3 144.691 276.341 133.573 284.207 125.707C292.073 117.841 303.192 113.8 317.5 113.8C332.219 113.8 343.336 117.747 351.197 125.512C359.058 133.275 363 144.19 363 158.4C363 168.792 361.218 177.121 357.814 183.637ZM303.129 179.336L303.129 179.336L303.137 179.346C306.651 183.5 311.546 185.6 317.6 185.6C323.736 185.6 328.639 183.611 332.163 179.446C335.708 175.256 337.3 168.037 337.3 158C337.3 149.51 335.59 143.01 331.949 138.938C328.335 134.795 323.451 132.804 317.419 132.8C312.01 132.594 306.832 134.93 303.246 139.043C299.605 143.22 297.9 150.024 297.9 159.2C297.9 168.284 299.608 175.069 303.129 179.336ZM478.814 183.637L478.811 183.642C475.504 190.062 470.347 195.318 464.017 198.825C457.499 202.424 449.375 204.3 439.6 204.3C429.601 204.3 421.464 202.715 415.042 199.603C408.419 196.29 402.969 191.13 399.369 184.805L399.363 184.795C395.373 177.983 393.3 169.468 393.3 159.1C393.3 144.691 397.341 133.573 405.207 125.707C413.073 117.841 424.192 113.8 438.5 113.8C453.223 113.8 464.435 117.749 472.193 125.507C479.961 133.276 484 144.196 484 158.4C484 168.792 482.218 177.121 478.814 183.637ZM424.129 179.336L424.137 179.346C427.651 183.5 432.546 185.6 438.6 185.6C444.736 185.6 449.639 183.611 453.163 179.446C456.708 175.256 458.3 168.037 458.3 158C458.3 149.51 456.59 143.01 452.949 138.938C449.335 134.795 444.451 132.804 438.419 132.8C433.021 132.595 427.736 134.922 424.241 139.048C420.603 143.226 418.9 150.029 418.9 159.2C418.9 168.284 420.608 175.069 424.129 179.336Z" fill="#5C2849" stroke="white" stroke-width="2"/>
<path d="M509.7 182.8H551.8V202.8H483V115.4H508.7V181.8V182.8H509.7Z" fill="#5C2849" stroke="white" stroke-width="2"/>
<path d="M451.679 109.241C479.466 88.3008 488.035 52.8041 470.817 29.9568C453.6 7.10944 417.117 5.56324 389.329 26.5032C361.542 47.4432 352.973 82.9399 370.191 105.787C387.408 128.635 423.891 130.181 451.679 109.241Z" fill="white"/>
<mask id="mask0_222_1050" style="mask-type:luminance" maskUnits="userSpaceOnUse" x="361" y="11" width="119" height="113">
<path d="M451.679 109.241C479.466 88.3008 488.035 52.8041 470.817 29.9568C453.6 7.10944 417.117 5.56324 389.329 26.5032C361.542 47.4432 352.973 82.9399 370.191 105.787C387.408 128.635 423.891 130.181 451.679 109.241Z" fill="white"/>
</mask>
<g mask="url(#mask0_222_1050)">
<path d="M299.325 56.5405L442.918 -51.6683L542.28 80.1847L398.687 188.394L299.325 56.5405Z" fill="white"/>
<mask id="mask1_222_1050" style="mask-type:luminance" maskUnits="userSpaceOnUse" x="299" y="-52" width="244" height="241">
<path d="M299.325 56.5405L442.918 -51.6683L542.28 80.1847L398.687 188.394L299.325 56.5405Z" fill="white"/>
</mask>
<g mask="url(#mask1_222_1050)">
<path d="M451.679 109.241C479.466 88.3008 488.035 52.8041 470.817 29.9568C453.6 7.10944 417.117 5.56324 389.329 26.5032C361.542 47.4432 352.973 82.9399 370.191 105.787C387.408 128.635 423.891 130.181 451.679 109.241Z" fill="white"/>
<mask id="mask2_222_1050" style="mask-type:luminance" maskUnits="userSpaceOnUse" x="361" y="11" width="119" height="113">
<path d="M451.679 109.241C479.466 88.3008 488.035 52.8041 470.817 29.9568C453.6 7.10944 417.117 5.56324 389.329 26.5032C361.542 47.4432 352.973 82.9399 370.191 105.787C387.408 128.635 423.891 130.181 451.679 109.241Z" fill="white"/>
</mask>
<g mask="url(#mask2_222_1050)">
<path d="M339.311 65.345L439.859 -10.4236L502.267 72.3949L401.719 148.163L339.311 65.345Z" fill="white"/>
<mask id="mask3_222_1050" style="mask-type:luminance" maskUnits="userSpaceOnUse" x="339" y="-11" width="164" height="160">
<path d="M339.311 65.345L439.859 -10.4236L502.267 72.3949L401.719 148.163L339.311 65.345Z" fill="white"/>
</mask>
<g mask="url(#mask3_222_1050)">
<path d="M451.679 109.241C479.466 88.3008 488.035 52.8041 470.817 29.9568C453.6 7.10944 417.117 5.56324 389.329 26.5032C361.542 47.4432 352.973 82.9399 370.191 105.787C387.408 128.635 423.891 130.181 451.679 109.241Z" fill="white" stroke="#5C2849" stroke-width="4" stroke-miterlimit="10"/>
</g>
<mask id="mask4_222_1050" style="mask-type:luminance" maskUnits="userSpaceOnUse" x="353" y="-6" width="136" height="150">
<path d="M353.639 115.082L388.342 -5.94084L488.024 22.6427L453.322 143.666L353.639 115.082Z" fill="white"/>
</mask>
<g mask="url(#mask4_222_1050)">
<path d="M339.311 65.345L439.859 -10.4236L502.267 72.3949L401.719 148.163L339.311 65.345Z" stroke="#5C2849" stroke-width="4" stroke-miterlimit="10"/>
</g>
<path d="M451.679 109.241C479.466 88.3008 488.035 52.8041 470.817 29.9568C453.6 7.10944 417.117 5.56324 389.329 26.5032C361.542 47.4432 352.973 82.9399 370.191 105.787C387.408 128.635 423.891 130.181 451.679 109.241Z" stroke="#5C2849" stroke-width="4" stroke-miterlimit="10"/>
<path d="M339.311 65.345L439.859 -10.4236L502.267 72.3949L401.719 148.163L339.311 65.345Z" fill="white"/>
<mask id="mask5_222_1050" style="mask-type:luminance" maskUnits="userSpaceOnUse" x="339" y="-11" width="164" height="160">
<path d="M339.311 65.345L439.859 -10.4236L502.267 72.3949L401.719 148.163L339.311 65.345Z" fill="white"/>
</mask>
<g mask="url(#mask5_222_1050)">
<path d="M451.679 109.241C479.466 88.3008 488.035 52.8041 470.817 29.9568C453.6 7.10944 417.117 5.56324 389.329 26.5032C361.542 47.4432 352.973 82.9399 370.191 105.787C387.408 128.635 423.891 130.181 451.679 109.241Z" fill="white" stroke="#5C2849" stroke-width="4" stroke-miterlimit="10"/>
</g>
<mask id="mask6_222_1050" style="mask-type:luminance" maskUnits="userSpaceOnUse" x="353" y="-6" width="136" height="150">
<path d="M353.639 115.082L388.342 -5.94084L488.024 22.6427L453.322 143.666L353.639 115.082Z" fill="white"/>
</mask>
<g mask="url(#mask6_222_1050)">
<path d="M339.311 65.345L439.859 -10.4236L502.267 72.3949L401.719 148.163L339.311 65.345Z" stroke="#5C2849" stroke-width="4" stroke-miterlimit="10"/>
</g>
<path d="M299.325 56.5405L442.918 -51.6683L542.28 80.1847L398.687 188.394L299.325 56.5405Z" stroke="#5C2849" stroke-width="4" stroke-miterlimit="10"/>
</g>
<path d="M451.679 109.241C479.466 88.3008 488.035 52.8041 470.817 29.9568C453.6 7.10944 417.117 5.56324 389.329 26.5032C361.542 47.4432 352.973 82.9399 370.191 105.787C387.408 128.635 423.891 130.181 451.679 109.241Z" stroke="#5C2849" stroke-width="4" stroke-miterlimit="10"/>
<path d="M392.4 61.3L402.4 54.3L414.7 71.8C416.8 74.6 418.4 77.6 419.6 80.9C420.3 83.4 420.1 86.1 419.1 88.5C417.8 91.5 415.7 94 412.9 95.8C409.6 98.1 406.8 99.4 404.4 99.8C402.1 100.2 399.7 99.8 397.5 98.8C395.1 97.6 393 95.9 391.4 93.7L400 85.7C400.7 86.8 401.6 87.8 402.6 88.6C403.3 89.1 404.1 89.4 405 89.4C405.7 89.4 406.4 89.1 406.9 88.7C407.9 88.1 408.6 86.9 408.5 85.7C408.2 84 407.5 82.3 406.4 81L392.4 61.3ZM422.4 72.4L431.5 65.2C432.5 66.4 433.8 67.3 435.2 67.8C437.2 68.4 439.3 68 441 66.7C442.2 65.9 443.2 64.8 443.6 63.4C444.2 61.6 443.2 59.6 441.4 59C441.1 58.9 440.8 58.8 440.5 58.8C439.3 58.7 437.2 59.2 434.1 60.5C429 62.6 425 63.4 422 63.1C419.1 62.8 416.4 61.3 414.8 58.8C413.6 57.1 413 55.1 412.9 53.1C412.9 50.8 413.5 48.5 414.8 46.6C416.7 43.9 419 41.6 421.8 39.8C426 36.9 429.7 35.5 432.9 35.5C436.1 35.5 439.1 37 441.9 40.1L432.9 47.2C431.1 44.9 427.7 44.4 425.4 46.2L425.1 46.5C424.1 47.1 423.4 48 423 49.1C422.7 49.9 422.9 50.8 423.4 51.5C423.8 52 424.4 52.4 425.1 52.4C425.9 52.5 427.3 52.1 429.3 51.2C434.3 49.1 438.1 47.9 440.7 47.5C442.9 47.1 445.2 47.3 447.3 48.2C449.2 49 450.8 50.4 451.9 52.1C453.3 54.1 454.1 56.5 454.2 59C454.3 61.6 453.6 64.1 452.2 66.3C450.4 69 448.1 71.3 445.4 73.1C439.9 76.9 435.4 78.5 431.8 77.9C427.9 77.3 424.7 75.3 422.4 72.4Z" fill="#5C2849"/>
</g>
</g>
</g>
<defs>
<clipPath id="clip0_222_1050">
<rect width="552.8" height="205.3" fill="white"/>
</clipPath>
</defs>
</svg>
