<?xml version="1.0" encoding="UTF-8"?>
<svg id="_Слой_2" data-name="Слой 2" xmlns="http://www.w3.org/2000/svg" viewBox="0 0 334.25 75.66">
  <defs>
    <style>
      .cls-1 {
        fill: #ffda66;
      }
    </style>
  </defs>
  <g id="Elements">
    <path class="cls-1" d="m333.69,40.3c-.74-.74-2.99-1.52-4.14-2.17-1.75-.99-4.32-.71-5.5-1.85,2.32-1.86.87-3.15-1.2-4.03-1.56-.67-3.45-.3-5.05-.87-1.19-.43-.97-1.36-2.23-1.76-1.37-.44-6.77-.31-7.15-1.72-.51-1.87,5.27-.41,6.01-1.42,1.53-2.09-8.26-3.24-9.15-3.4-2.81-.48-6.04-.67-8.84-1.28-.89-.19-1.59-2.33-2.81-1.11.17.44,1.74,1.13.27,1.54-.4.11-4.83-.4-5.18-.87-2.2-2.9,4.69-2.2,5.31-2.82-1.72-1.34-3.24-.04-4.41-.41-1.76-.55-3.58-2.18-5.35-2.88-4.46-1.75-9.41-2.22-14.5-3.58-3.57-.96-9.75-2.51-13.62-2.73-.6-.03-2.49.74-2.83.7-.52-.07-1.34-1.21-1.68-1.28-3.04-.64-6.62-.4-9.14-.43-11.23-.12-25.36-2.42-36.23-3.56-4.68-.49-7.94-2.07-13.16-2.08-3.16,0-4.76-1.3-8.39-.98.46-.04-1.31.45-.87.44-1.94.06-3.44-.69-5.47-.89-1.8-.19-5.54-1.09-7.41-.82-1.55.23-.98,1.56-3.24,1.71-.66.05-.21-.88-.77-.98-.93-.16-2.26-.26-3.43-.25-.68,0-3.95.06-4.58.18-.02,0-1.75.83-1.55.82-1.68.1-4.77-.29-7.37.17-.92.16-1.49.91-2.54.93-.89.01-1.24-1.08-3.71-.86-1.49.13-5.37.45-6.76.87-1.77.54-.84,1.4-2.82,1.74.54-.09-3.59-.82-3.71-.82-3.71-.12-7.67,1.5-11.52,1.47-11.47-.1-24.45-1.08-36.77-1.09-12.74,0-25.31-.59-37.07,3.49-5.27,1.83-9.02,5.9-12,10.68-2.25,3.61-5.06,4.65-8.98,6.32-4.06,1.73-8.16,3.44-11.48,6.08-.79.63-.59,2.22-1.31,2.61-1.14.63-3.08-.06-4.16.9-3.01,2.64,1.12,3.75,1.12,6.51-4.13,0-6.89,3.35-7.84,6.77-1.16,4.17,0,5.38,1.31,8.91,1.6,4.35.66,8.06,6.64,6.97.87-.16,1.93-.79,2.51-.87,3.43-.49,4.28,1.14,7.33,1.05,5.58-.16,11.88.85,17.69.66,1.55-.05,3.36-.11,5.31-.4,3.12-.46,3.49-.04,6.52,0,3.39.04,6.84-.53,10.41-.87,1.75-.17,1.26-.85,3.57,1.4,1.04,1.02,2.66,3.19,3.77,3.75,4.28,2.14,12.38.47,16.56.45,7.6-.02,14.74-.39,22.06-.81,13.84-.79,26.14,1.72,38.97,3.91,24.08,4.1,50.71,5.09,74.06,3.5,7.36-.5,15.11-.58,22.32-1.31,1.25-.13,3.08.13,3.92-.42.95-.63.08-2.2,1.61-2.54.79-.18,1.27,1.93,1.14,1.89.97.29,1.87.4,3.03.64,1.47.3,5.07.4,6.1-.44.99-.81.21-3.09.91-3.74,2.42-2.24,2.51.98,3.01,1.56.77.9-2.4,4.87,4.14,2.61-.18.06,3.13-.76,1.96-.76-.34,0,.12-.98.65-.94.23.02,2.09,1.48,2.69,1.66,1.07.31,4.79.39,5.81-.17,2.14-1.17,1.28-2.4-.87-2.4,0-5.3,1.58.77,2.18-2.4.41-2.16-1.55-.96-.87-3.17.92-2.97,3.82-2.34,4.36.34.14.72-2.3,6.2-1.05,7.4.82.79,9.74.29,10.71-.61,1.74-1.6-.16-3.49,1.45-4.65-.64.46,3.09,1.07,3.18,1.06,1.08-.11,1.72-1.02,2.86-1.38.55-.18,2.15-.18,2.88-.31.28-.05.37-.92.67-1.05,1.1.99,5.21-.07,6.51-.89,1.32-.82,1.04-2.28,2.61-3.48,1.06-.81,3.26-.63,4.58-.88,1.29-.25,4.94-1.1,5.66-1.95,3.01-3.52-5.51-.86-1.53-5.03,1.8-1.88,3.71-.86,5.2-1.1.34-.06,2.46-1.44,3.3-1.5,1.17-.09,5.5,1.46,4.35-1.56-1.49-3.9-17.61-.64-13.57-8.6.28-.55-1.94-.84-2.09-.94.03-.06,1.77-1.81,1.73-1.79,3.75-1.97,1.4-.33,2.61,1.34.75,1.03-.9,1.58,1.31,1.75.2.02,2.08.11,2.54-.8.15-.3-1.72-1.31-.21-2.4.3-.22,1.03.43,1.59.36.8-.1,2.48.48,3.27,1.09,1.17.91,1.63,1.92,3.05,2.4,1.09.36,4.79.42,2.84-1.53Z"/>
  </g>
</svg>